# xmcd
#
# Track frame offsets: 
#        150
#        10986
#        22658
#        34290
#        42897
#        54966
#        66338
#        78736
#        92877
#        105958
#        114326
#        126349
#        141002
#        153070
#        166313
#        179904
#        190079
#        202351
#        212467
#        224217
#        239395
#        252248
#        267235
#        278364
#        291292
#
# Disc length: 4058 seconds
#
# Revision: 2
# Processed by: cddbd v1.5.2PL0 Copyright (c) Steve Scherf et al.
# Submitted via: ExactAudioCopyFreeDBPlugin 1.0
#
DISCID=6e0fd819
DTITLE=Various Artist - Mark Lamarr's Rhythm and Blues Christmas
DYEAR=2006
DGENRE=Holiday
TTITLE0=The Moonglows - Hey Santa Claus
TTITLE1=Big Joe Turner - Christmas Date Boogie
TTITLE2=The Marshall Brothers - Mr. Santa's Boogie
TTITLE3=Lloyd Glenn - Sleigh Ride
TTITLE4=Titus Turner - Christmas Morning
TTITLE5=J. B. Summers - I Want a Present for Christmas
TTITLE6=Jimmy Witherspoon - How I Hate to See Christmas Come Around
TTITLE7=The Ravens - White Christmas
TTITLE8=Larry Darnell - Christmas Blues
TTITLE9=Thelma Cooper - I Want a Man
TTITLE10=Harry Grafton - Bring That Cadillac Back
TTITLE11=Lightnin' Hopkins - Happy New Year
TTITLE12=Felix Gross - Love for Christmas
TTITLE13=Louis Armstrong - Cool Yule
TTITLE14=Floyd Dixon - Empty Stocking Blues
TTITLE15=Mabel Scottt - Boogie Woogie Santa Claus
TTITLE16=Billy Ward and His Dominoes - Christmas in Heaven
TTITLE17=Sugar Chile Robinson - Christmas Boogie
TTITLE18=Sonny Boy Williamson - Sonny Boy's Christmas Blues
TTITLE19=Lionel Hampton - Merry Christmas Baby
TTITLE20=The Five Keys - It's Christmas Time
TTITLE21=Little Esther - Far Away Christmas Blues
TTITLE22=The Moonglows - Lonely Christmas
TTITLE23=Gatemouth Moore - Christmas Blues
TTITLE24=The Orioles - What Are You Doing New Years Eve
EXTD=
EXTT0=
EXTT1=
EXTT2=
EXTT3=
EXTT4=
EXTT5=
EXTT6=
EXTT7=
EXTT8=
EXTT9=
EXTT10=
EXTT11=
EXTT12=
EXTT13=
EXTT14=
EXTT15=
EXTT16=
EXTT17=
EXTT18=
EXTT19=
EXTT20=
EXTT21=
EXTT22=
EXTT23=
EXTT24=
PLAYORDER=
